<svg xmlns="http://www.w3.org/2000/svg" width="32" height="32" viewBox="0 0 32 32">
  <g id="commenter" transform="translate(-0.2 0.02)">
    <path id="Tracé_10" data-name="Tracé 10" d="M25.091,21.879c-.15.281-.275.55-.419.806a8.668,8.668,0,0,1-5.821,4.3,8.938,8.938,0,0,1-2,.187c-2.62.019-5.233.006-7.853.013a.782.782,0,0,0-.456.15c-1.894,1.406-3.776,2.825-5.665,4.243a1.626,1.626,0,0,1-2.27-.119,1.479,1.479,0,0,1-.394-.906C.206,30.441.2,30.328.2,30.216v-14.9A8.679,8.679,0,0,1,3.226,8.549,8.4,8.4,0,0,1,6.64,6.718a.339.339,0,0,0,.281-.275,8.646,8.646,0,0,1,3.514-4.912,8.28,8.28,0,0,1,4.7-1.525c2.826-.025,5.652-.044,8.478,0a8.747,8.747,0,0,1,8.322,6.606,9.124,9.124,0,0,1,.263,2.256c0,4.993-.006,9.986.006,14.98a1.643,1.643,0,0,1-1.288,1.7,1.624,1.624,0,0,1-1.332-.325c-.882-.662-1.769-1.325-2.651-1.987l-1.576-1.181C25.278,22,25.191,21.948,25.091,21.879Zm-21.7,5.287c.131-.081.194-.125.256-.169,1.113-.837,2.232-1.662,3.339-2.512a2.275,2.275,0,0,1,1.482-.5c2.795.013,5.59.019,8.385,0a6.042,6.042,0,0,0,1.426-.156,5.558,5.558,0,0,0,4.314-5.474c.006-1.037.025-2.081-.006-3.118a6.066,6.066,0,0,0-.2-1.537,5.548,5.548,0,0,0-5.427-4.1c-2.645-.006-5.283,0-7.928,0a5.435,5.435,0,0,0-2.045.369,5.567,5.567,0,0,0-3.6,5.318q-.009,5.774-.006,11.549C3.389,26.916,3.389,27,3.389,27.166ZM10.348,6.393h.363c2.063,0,4.133-.019,6.2.012a9.918,9.918,0,0,1,2.188.25A8.764,8.764,0,0,1,25.8,15.211c.006.975.006,1.95,0,2.931a.43.43,0,0,0,.194.4c.925.687,1.844,1.381,2.77,2.069a1.862,1.862,0,0,0,.238.137c.006-.119.013-.187.013-.256,0-3.881.006-7.762-.006-11.643a5.824,5.824,0,0,0-.156-1.356,5.565,5.565,0,0,0-5.5-4.293c-2.639-.012-5.283-.006-7.922,0a5.535,5.535,0,0,0-3.751,1.419A5.085,5.085,0,0,0,10.348,6.393Z" transform="translate(0 0)" fill="#8e9ba7"/>
    <path id="Tracé_11" data-name="Tracé 11" d="M108.928,208.161c-1.627,0-3.254.006-4.881,0a1.623,1.623,0,0,1-1.627-1.767,1.642,1.642,0,0,1,1.7-1.487c1.735-.006,3.464-.006,5.2-.006,1.462,0,2.93,0,4.392.006a1.6,1.6,0,0,1,1.583.979,1.615,1.615,0,0,1-1.481,2.276C112.182,208.167,110.555,208.161,108.928,208.161Z" transform="translate(-95.894 -192.138)" fill="#8e9ba7"/>
    <path id="Tracé_12" data-name="Tracé 12" d="M107.143,284.867c-1.081,0-2.161.006-3.248,0a1.62,1.62,0,0,1-1.583-1.271,1.577,1.577,0,0,1,.769-1.748,2.033,2.033,0,0,1,.883-.235c2.129-.019,4.259-.013,6.394-.006a1.634,1.634,0,0,1,.375,3.235,1.787,1.787,0,0,1-.413.032C109.253,284.867,108.2,284.867,107.143,284.867Z" transform="translate(-95.729 -264.054)" fill="#8e9ba7"/>
  </g>
</svg>
