<svg id="Capa_1" enable-background="new 0 0 512 512" height="512" viewBox="0 0 512 512" width="512" xmlns="http://www.w3.org/2000/svg"><g><path d="m421 212h-61.05c-6.461-46.036-42.793-84.081-88.95-90.897v-31.103h90v-90h-120v121.103c-46.167 6.817-82.491 44.871-88.95 90.897h-61.05v30h-91v270h512v-270h-91zm-150-182h60v30h-60zm-15 120c35.672 0 66.479 27.15 73.497 62h-146.994c7.018-34.85 37.825-62 73.497-62zm-135 92h270v30h-270zm240 60v120h-30v-120zm-60 0v120h-90v-120zm-120 0v120h-30v-120zm-90 120v60h-61v-30h30v-30h-30v-30h30v-30h-30v-30h30v-30h-30v-30h61v30h30v120zm68.787 60h-38.787v-30h68.787zm42.426 0 30-30h47.574l30 30zm188.787 0h-38.787l-30-30h68.787zm91-210v30h-30v30h30v30h-30v30h30v30h-30v30h30v30h-61v-60h-30v-120h30v-30z"/></g></svg>