<svg xmlns="http://www.w3.org/2000/svg" width="56" height="56" viewBox="0 0 56 56">
  <path id="left_menu" d="M56,28.154A28,28,0,1,0,8.349,48.117h-.1l.815.717.916.717.1.1,1.527,1.229c.2.1.305.2.509.307a14.246,14.246,0,0,0,1.629,1.024c.1.1.2.1.407.2a17.659,17.659,0,0,0,1.935,1.024h.1a26.476,26.476,0,0,0,6.822,2.15h.2c.815.1,1.527.2,2.24.307h.2a17.957,17.957,0,0,0,2.24.1,17.165,17.165,0,0,0,2.24-.1h.305c.713-.1,1.527-.2,2.24-.307h.2a23.91,23.91,0,0,0,6.618-2.15h.1l.1-.1,1.833-.921c.1-.1.305-.2.407-.307.611-.307,1.12-.717,1.629-1.024.1-.1.305-.2.407-.307l.1-.1a14.976,14.976,0,0,0,1.324-1.024.1.1,0,0,0,.1-.1l.2-.2.916-.717.916-.717-.1-.1A26.238,26.238,0,0,0,56,28.154ZM29.833,52.314h0a12.288,12.288,0,0,1-1.833.1,12.288,12.288,0,0,1-1.833-.1h-.305c-.611-.1-1.222-.1-1.833-.2h-.1a24.013,24.013,0,0,1-3.665-.921h-.2a8.781,8.781,0,0,1-1.731-.717h0c-.509-.2-1.018-.512-1.629-.819h-.1l-.1-.1c-.407-.2-.916-.512-1.425-.819-.1-.1-.305-.2-.407-.307l-.1-.1,6.516-3.583a5.213,5.213,0,0,0,2.647-4.5v-3.89l-.2-.307-.1-.307A15.03,15.03,0,0,1,20.669,30l-.1-.41-.1-.41-.305-.2-.305-.2a.563.563,0,0,1-.305-.512V24.775c0-.2.1-.307.2-.512l.305-.307.305-.307V17.711h0v-.1h0a5.332,5.332,0,0,1,1.12-3.583c1.222-1.433,3.462-2.15,6.516-2.15s5.295.717,6.516,2.15a5.226,5.226,0,0,1,1.12,3.583v6.245l.305.307.305.307a.6.6,0,0,1,.2.512v3.481a.648.648,0,0,1-.509.614l-.509.1-.509.1v.41l-.2.512a15.67,15.67,0,0,1-2.342,4.709c-.2.307-.509.614-.611.819l-.2.307-.2.307v4.1a5.126,5.126,0,0,0,2.851,4.607l7.025,3.481h0c-.1.1-.305.2-.407.307a15.058,15.058,0,0,0-1.324.819l-.2.1-.1.1c-1.12.512-2.138,1.024-3.258,1.433h-.2c-.611.2-1.12.307-1.731.512h-.1c-.611.1-1.222.307-1.833.41h0a8.92,8.92,0,0,1-1.731.2Zm5.4-14.537c.1-.2.305-.41.407-.614a22.483,22.483,0,0,0,2.545-4.914,4.394,4.394,0,0,0,2.24-3.89V24.878a4.221,4.221,0,0,0-.916-2.662v-4.2a8.542,8.542,0,0,0-2.138-6.45C35.331,9.316,32.175,8.088,27.9,8.088s-7.433,1.126-9.469,3.481a9.69,9.69,0,0,0-2.138,6.45v4.2a4.435,4.435,0,0,0-.916,2.662v3.481A4.831,4.831,0,0,0,16.8,31.737a20.073,20.073,0,0,0,2.953,6.143v2.559a1.127,1.127,0,0,1-.611,1.024l-7.738,4.3c-.1,0-.1.1-.2.1A24.108,24.108,0,1,1,51.825,28.358a24.468,24.468,0,0,1-7.535,17.609c-.1-.1-.2-.1-.305-.2l-8.349-4.2a1.259,1.259,0,0,1-.713-1.126V37.777ZM20.058,52.007Z" fill="#fff"/>
</svg>
