<svg id="news" xmlns="http://www.w3.org/2000/svg" width="80" height="80" viewBox="0 0 80 80">
  <circle id="Ellipse_2" data-name="Ellipse 2" cx="39" cy="39" r="39" transform="translate(1 1)" fill="#fff"/>
  <path id="Tracé_6" data-name="Tracé 6" d="M162.232,174.109q-.024-14.486-.016-28.988V144.4H133.1v30.462a5.362,5.362,0,0,0,.08,1.137,5.118,5.118,0,0,0,5.205,4.244c6.727.016,16.977,0,23.687,0,.16,0,.32-.016.577-.032C162.008,178.145,162.248,176.111,162.232,174.109Zm-21.573-24.6c2.194-.064,7.928-.032,10.122-.032,1.217,0,2.434-.032,3.668,0a2.539,2.539,0,0,1,2.514,3.4,2.5,2.5,0,0,1-2.37,1.7c-1.714.016-3.443,0-5.157,0h-8.568a2.516,2.516,0,0,1-2.627-2.466A2.455,2.455,0,0,1,140.659,149.509Zm16.288,23.9a2.557,2.557,0,0,1-2.562,1.7H149.4c-1.682,0-6.887.016-8.568,0a2.558,2.558,0,0,1-.913-4.965,3.813,3.813,0,0,1,1.121-.176c3.235-.016,10.01-.016,13.245,0A2.578,2.578,0,0,1,156.947,173.4Zm-.5-9.4a2.5,2.5,0,0,1-1.97.849c-3.363,0-10.25.032-13.613,0a2.558,2.558,0,1,1,.08-5.109c1.666-.016,6.839,0,8.5,0v.016c1.762,0,3.523-.032,5.285.016a2.328,2.328,0,0,1,2.162,1.554A2.439,2.439,0,0,1,156.451,164Z" transform="translate(-112.596 -122.276)" fill="#8c52b9"/>
  <path id="Tracé_7" data-name="Tracé 7" d="M352.293,176.793v27.387a2.534,2.534,0,0,1-3.411,2.595,2.408,2.408,0,0,1-1.666-2.21c-.016-.192-.016-.4-.016-.609V176.2h5.077C352.261,176.408,352.293,176.6,352.293,176.793Z" transform="translate(-293.04 -149.082)" fill="#8c52b9"/>
  <path id="Tracé_8" data-name="Tracé 8" d="M40,0A40,40,0,1,0,80,40,40,40,0,0,0,40,0ZM64.2,55.219A7.431,7.431,0,0,1,56.828,62.5H25.734A9.994,9.994,0,0,1,15.8,53.063c-.016-.3-.031-.578-.031-.875V22.844a5.052,5.052,0,0,1,3.766-5.156A6.694,6.694,0,0,1,21.2,17.5c8.047-.016,19.531-.016,27.578,0a5.087,5.087,0,0,1,5.281,3.828c.094.359.125.734.2,1.188,1.594,0,3.156.016,4.7,0a5.017,5.017,0,0,1,4.188,1.953A4.614,4.614,0,0,1,64.2,27.391C64.219,36.672,64.234,45.938,64.2,55.219Z" fill="#8c52b9"/>
</svg>
