<svg xmlns="http://www.w3.org/2000/svg" width="80" height="80" viewBox="0 0 80 80">
  <g id="poll" transform="translate(-34 -987)">
    <circle id="Ellipse_3" data-name="Ellipse 3" cx="39" cy="39" r="39" transform="translate(35 988)" fill="#fff"/>
    <path id="poll-2" data-name="poll" d="M40,0A40,40,0,1,0,80,40,40,40,0,0,0,40,0ZM30.313,60.3A1.4,1.4,0,0,1,28.906,61.7H21.719A1.4,1.4,0,0,1,20.313,60.3V34.047a1.4,1.4,0,0,1,1.406-1.406h7.188a1.4,1.4,0,0,1,1.406,1.406ZM45,60.3A1.4,1.4,0,0,1,43.594,61.7H36.406A1.4,1.4,0,0,1,35,60.3V41.391a1.4,1.4,0,0,1,1.406-1.406h7.188A1.4,1.4,0,0,1,45,41.391Zm14.688,0A1.4,1.4,0,0,1,58.281,61.7H51.094A1.4,1.4,0,0,1,49.688,60.3V19.672a1.4,1.4,0,0,1,1.406-1.406h7.188a1.4,1.4,0,0,1,1.406,1.406Z" transform="translate(34 987)" fill="#fbaf5d"/>
  </g>
</svg>
