<svg id="post" xmlns="http://www.w3.org/2000/svg" width="74.667" height="74.666" viewBox="0 0 74.667 74.666">
  <g id="Groupe_9" data-name="Groupe 9" transform="translate(0 5.333)">
    <g id="Groupe_8" data-name="Groupe 8">
      <path id="Tracé_23" data-name="Tracé 23" d="M61.332,66.137A2.667,2.667,0,0,0,58.666,68.8V95.469A2.667,2.667,0,0,1,56,98.136H8a2.667,2.667,0,0,1-2.667-2.667V42.137A2.667,2.667,0,0,1,8,39.47H40a2.667,2.667,0,1,0,0-5.333H8a8,8,0,0,0-8,8V95.469a8,8,0,0,0,8,8H56a8,8,0,0,0,8-8V68.8A2.667,2.667,0,0,0,61.332,66.137Z" transform="translate(0 -34.137)" fill="#fff"/>
    </g>
  </g>
  <g id="Groupe_11" data-name="Groupe 11" transform="translate(16.001 0)">
    <g id="Groupe_10" data-name="Groupe 10">
      <path id="Tracé_24" data-name="Tracé 24" d="M158.085,2.994a10.207,10.207,0,0,0-14.438,0L108.522,38.118a2.7,2.7,0,0,0-.643,1.043l-5.333,16a2.667,2.667,0,0,0,2.528,3.509,2.708,2.708,0,0,0,.843-.136l16-5.333a2.667,2.667,0,0,0,1.043-.645L158.084,17.43A10.208,10.208,0,0,0,158.085,2.994Z" transform="translate(-102.409 -0.004)" fill="#fff"/>
    </g>
  </g>
</svg>
