<svg id="projet" xmlns="http://www.w3.org/2000/svg" width="80" height="80" viewBox="0 0 80 80">
  <circle id="Ellipse_4" data-name="Ellipse 4" cx="39" cy="39" r="39" transform="translate(1 1)" fill="#fff"/>
  <rect id="Rectangle_6" data-name="Rectangle 6" width="9.016" height="2.25" transform="translate(35.5 22)" fill="#f0504c"/>
  <path id="Tracé_9" data-name="Tracé 9" d="M40,0A40,40,0,1,0,80,40,40,40,0,0,0,40,0ZM67.047,56.375a6.2,6.2,0,0,1-6.2,6.2H19.156a6.2,6.2,0,0,1-6.2-6.2V41.156H26.469v2.078a1.688,1.688,0,1,0,3.375,0V41.156H50.125v2.078a1.687,1.687,0,1,0,3.375,0V41.156H67.016V56.375Zm0-18.594H53.531V34.969a1.687,1.687,0,1,0-3.375,0v2.813h-20.3V34.969a1.688,1.688,0,0,0-3.375,0v2.813H12.953V30.453a6.2,6.2,0,0,1,6.2-6.2H30.984V22A4.518,4.518,0,0,1,35.5,17.484h9.016A4.518,4.518,0,0,1,49.031,22v2.25H60.859a6.2,6.2,0,0,1,6.2,6.2v7.328Z" fill="#f0504c"/>
</svg>
